<svg width="145" height="33" viewBox="0 0 145 33" fill="none" xmlns="http://www.w3.org/2000/svg">
<g clip-path="url(#clip0_101_1167)">
<path d="M71.5156 12.8184V0.651123H79.1685V3.47394H74.7003V12.8184H71.5156Z" fill="#CD1280"/>
<path d="M88.7826 12.8184V8.04884H84.0479V12.8184H80.8633V0.651123H84.0479V5.18953H88.7826V0.651123H91.9672V12.8184H88.7826Z" fill="#CD1280"/>
<path d="M110.482 12.8184V3.47394H106.752V0.651123H117.408V3.47394H113.666V12.8184H110.482Z" fill="#CD1280"/>
<path d="M102.066 12.8184V5.88306L96.9804 12.8184H94.3164V0.651123H97.5132V7.51348L102.502 0.651123H105.251V12.8184H102.066Z" fill="#CD1280"/>
<path d="M53.1946 12.8184V5.59105L50.0099 9.41158L46.8253 5.59105V12.8184H43.6406V0.651123H46.789L50.0099 4.83667L53.2309 0.651123H56.3793V12.8184H53.1946Z" fill="#CD1280"/>
<path d="M62.4336 8.5477H65.4003L63.923 4.72717L62.4457 8.5477H62.4336ZM67.0593 12.8306L66.3933 11.1272H61.4286L60.7626 12.8306H57.5537L62.47 0.651123H65.4124L70.3166 12.8184H67.0593V12.8306Z" fill="#CD1280"/>
<path d="M75.3301 32.639C73.4895 32.639 71.9032 32.0063 70.6318 30.7774C69.3482 29.5363 68.6943 28.0397 68.6943 26.312C68.6943 24.5842 69.3482 23.0876 70.6318 21.8466C71.9153 20.6055 73.4895 19.985 75.3301 19.985C75.9718 19.985 76.5773 20.0702 77.1464 20.2405C77.7155 20.4108 78.1999 20.6055 78.5753 20.8489C78.9385 21.08 79.2655 21.3112 79.5561 21.5424C79.8346 21.7736 80.0405 21.9804 80.1615 22.1508L80.3916 22.4306L78.3452 24.5721L78.1999 24.3774C78.1393 24.2922 78.0425 24.1949 77.8003 23.988C77.6065 23.8177 77.4007 23.6595 77.1948 23.5378C76.989 23.404 76.7105 23.2823 76.3714 23.185C76.0324 23.0755 75.6812 23.0268 75.3422 23.0268C74.3977 23.0268 73.6106 23.3432 72.9809 23.9637C72.3512 24.5842 72.0364 25.3873 72.0364 26.3241C72.0364 27.261 72.3512 28.0641 72.9809 28.6968C73.6106 29.3295 74.3977 29.6458 75.3422 29.6458C75.9234 29.6458 76.4804 29.5241 77.0011 29.2686C77.5218 29.0253 77.8972 28.7698 78.1272 28.5143L78.5389 28.0762L80.4764 30.2055L80.4158 30.2907C80.3674 30.3515 80.319 30.4245 80.2463 30.5097C80.1615 30.6192 79.9678 30.8139 79.6409 31.0937C79.3381 31.3614 78.9991 31.6048 78.6237 31.8238C78.2604 32.0306 77.7761 32.2253 77.1827 32.3956C76.5894 32.566 75.9597 32.6511 75.3301 32.6511" fill="#CD1280"/>
<path d="M60.9682 23.0389C60.0963 23.0389 59.3577 23.3553 58.7764 23.9758C58.2073 24.5842 57.9167 25.3872 57.9167 26.3484C57.9167 27.3097 58.2073 28.1127 58.7764 28.7211C59.3577 29.3416 60.0963 29.6579 60.9682 29.6579C61.84 29.6579 62.5544 29.3538 63.1478 28.7211C63.729 28.1005 64.0317 27.2975 64.0317 26.3484C64.0317 25.3994 63.729 24.5963 63.1478 23.9758C62.5544 23.3431 61.84 23.0389 60.9682 23.0389ZM60.9682 32.6389C59.1518 32.6389 57.6261 32.0184 56.4273 30.8017C55.2285 29.5849 54.623 28.0762 54.623 26.3484C54.623 24.6207 55.2285 23.1119 56.4273 21.883C57.614 20.6663 59.1518 20.0458 60.9682 20.0458C62.7845 20.0458 64.3102 20.6663 65.509 21.883C66.7078 23.0998 67.3133 24.6085 67.3133 26.3484C67.3133 28.0884 66.7078 29.5849 65.509 30.8017C64.3223 32.0184 62.7845 32.6389 60.9682 32.6389Z" fill="#CD1280"/>
<path d="M111.027 32.6389V23.3796H107.455V20.5325H117.82V23.3796H114.224V32.6389H111.027Z" fill="#CD1280"/>
<path d="M51.6083 32.639L47.6245 27.5409L46.8374 27.5287V32.639H43.6406V20.5325H46.8374V24.6572H47.7698L50.906 20.5203L54.5266 20.5325L50.349 26.1051L55.2895 32.639H51.6083Z" fill="#CD1280"/>
<path d="M96.7266 32.6389V20.5325H105.53V23.3796H99.9354V25.1074H104.888V27.845H99.9354V29.7918H105.53V32.6389H96.7266Z" fill="#CD1280"/>
<path d="M91.3016 32.639V25.5089L88.1654 29.2686L85.0292 25.5089V32.639H81.8203V20.5325H84.9929L88.1654 24.6694L91.3622 20.5203L94.4984 20.5325V32.639H91.3016Z" fill="#CD1280"/>
<path d="M119.733 32.639V20.5325H122.942V27.2975L127.859 20.5203L130.619 20.5325V32.639H127.41V25.8009L122.397 32.6511L119.733 32.639Z" fill="#CD1280"/>
<path d="M140.815 32.639L136.832 27.5409L136.044 27.5287V32.639H132.848V20.5325H136.044V24.6572H136.977L140.113 20.5203L143.734 20.5325L139.556 26.1051L144.496 32.639H140.815Z" fill="#CD1280"/>
<path d="M0.496094 10.3485C0.496094 7.75683 1.50114 5.33553 3.3296 3.49827C5.15805 1.66101 7.56774 0.651123 10.1348 0.651123H32.4154V5.57888H10.1348C8.87551 5.57888 7.68883 6.07774 6.79276 6.97812C5.8967 7.8785 5.40023 9.08306 5.40023 10.3485L5.37601 18.6101C5.14594 20.8002 3.49912 22.5766 1.36794 22.9051L0.496094 23.039L0.496094 10.3485Z" fill="#CD1280"/>
<path d="M0.496094 32.6511V27.7234H22.7645C24.0238 27.7234 25.2105 27.2245 26.1066 26.3241C27.0027 25.4237 27.4991 24.2313 27.4991 22.9659V15.118C27.4991 12.7819 29.2428 10.75 31.5314 10.4093L32.4033 10.2755V22.9659C32.4033 25.5454 31.3982 27.9789 29.5698 29.8161C27.7413 31.6534 25.3316 32.6633 22.7524 32.6633H0.496094V32.6511Z" fill="#CD1280"/>
<path d="M21.6263 22.8686C21.6263 22.8686 22.5224 18.6222 19.4588 17.9044C20.149 17.8679 20.7061 17.7705 21.1662 17.6367C23.3216 16.9796 23.5032 15.1545 23.5517 13.1104C23.5759 11.7599 23.479 10.4458 23.479 10.4458C22.0865 10.6161 20.2338 10.7256 18.9381 11.188C17.5577 11.6869 16.6495 12.6237 16.4316 14.3758C16.2136 12.6116 15.3176 11.6747 13.925 11.188C12.6294 10.7256 10.7646 10.6161 9.38416 10.4458C9.38416 10.4458 9.28729 11.7477 9.3115 13.1104C9.34783 15.1545 9.54157 16.9675 11.697 17.6367C12.1571 17.7827 12.7262 17.88 13.4043 17.9044C10.3408 18.6222 11.2368 22.8686 11.2368 22.8686L12.5567 22.7348C14.4336 22.5401 15.7414 22.4306 16.4437 19.8998C17.1339 22.4306 18.4538 22.5401 20.3307 22.7348L21.6506 22.8686H21.6263Z" fill="#CD1280"/>
</g>
<defs>
<clipPath id="clip0_101_1167">
<rect width="144" height="32" fill="white" transform="translate(0.496094 0.651123)"/>
</clipPath>
</defs>
</svg>
