<svg width="142" height="32" viewBox="0 0 142 32" fill="none" xmlns="http://www.w3.org/2000/svg">
<g clip-path="url(#clip0_101_1186)">
<path d="M41.5706 1.32167V0.0562134H32.8037V1.32167H37.0121L30.6506 23.546L24.5085 1.32167H28.2921V0.0562134H17.1862V1.32167H20.6498L14.2876 23.546L8.1449 1.32167H11.9292V0.0562134H0.866211V1.32167H3.65476L11.9198 31.246H13.2993L21.0389 4.33503L21.2389 3.35412L28.2841 31.246H29.6669L38.2728 1.32167H41.5706ZM44.7255 7.60827C44.7195 7.60827 44.7182 7.60827 44.7182 7.60827C44.7115 7.60827 44.7094 7.60827 44.7014 7.60827C40.2012 7.60827 37.5629 10.3924 37.5468 15.5502H37.5428V19.9416H37.5468C37.573 25.0907 40.2032 27.8688 44.7014 27.8688C44.7094 27.8688 44.7114 27.8655 44.7161 27.8655C44.7161 27.8655 44.7195 27.8688 44.7255 27.8688C49.2237 27.8688 51.8539 25.0907 51.8801 19.9416H51.8861V15.5502H51.8801C51.8633 10.3924 49.2277 7.60827 44.7255 7.60827ZM48.3723 22.1866C48.3723 26.4321 47.1652 27.0638 44.7014 27.0638H44.6974C42.2517 27.0638 41.0359 26.4361 41.0097 22.2859V13.2778C41.0278 9.10496 42.2517 8.47923 44.6974 8.47923H44.7014C47.1652 8.47923 48.3723 9.11029 48.3723 13.3558C48.3723 13.3618 48.3696 13.3618 48.3696 13.3671V22.1753C48.3689 22.1793 48.3723 22.182 48.3723 22.1866ZM85.3843 7.2291H84.2846L78.1667 26.6387H76.2511V27.4823H81.9792V26.6387H79.2221L81.0901 20.7246H86.3089L87.9474 26.6387H85.7722V27.4823H92.7033V26.6387H90.8279L85.3843 7.2291ZM81.3337 19.9409L83.7626 12.2369H83.9552L86.0895 19.9409H81.3337ZM73.1888 26.6354L73.2029 8.48856H75.0943V7.65159H69.7776L69.7729 7.65825H69.7702L64.1293 23.3961L58.7824 7.65159L58.771 7.65425V7.65159H53.4985V8.49656H55.3624L55.3598 26.6394H53.6112V27.483H59.1581V26.6394H56.5413V9.43215L62.8156 28.0854H63.6872L70.2882 9.62407L70.26 26.6387H68.2209V27.4823H75.303V26.6387C75.303 26.6387 74.3127 26.6354 73.1707 26.6387C73.3364 24.5123 73.1888 26.6354 73.1888 26.6354ZM103.509 8.48856H106.36V21.5949L98.0469 7.67891L98.0429 7.65159H93.1971V8.48856H94.9175V26.6447H93.1971V27.483H98.6836V26.6447H95.7951V10.2191L106.35 27.9048L106.359 27.8695V27.9088H107.234V8.48856H109.11V7.65159H103.509V8.48856H103.509ZM111.255 21.998C110.202 21.998 109.349 22.943 109.349 24.1131C109.349 25.28 110.202 26.2262 111.255 26.2262C112.306 26.2262 113.163 25.28 113.163 24.1131C113.163 22.943 112.306 21.998 111.255 21.998ZM124.992 11.316C124.96 11.2767 124.936 11.2394 124.906 11.2047C124.904 11.2007 124.898 11.1961 124.893 11.1907C124.795 11.0761 124.69 10.9855 124.578 10.9228C124.313 10.7582 123.939 10.615 123.39 10.615C121.952 10.615 121.28 11.3167 120.647 12.2789C120.236 12.9046 119.802 13.7323 119.549 14.2367C119.535 13.9728 119.465 13.4331 119.152 12.6068C118.736 11.4919 118.341 11.1001 118.279 11.0475V11.0301H114.88V11.8671H117.032V24.9674H114.88V25.8037H122.61V24.9674H119.556V15.9047C119.888 15.0957 120.397 14.0382 121.155 12.91C121.927 11.9437 122.325 11.6619 122.767 11.6619C122.963 11.6619 122.967 12.5361 122.958 12.9759C122.956 13.0413 122.954 13.1066 122.948 13.1739C122.948 13.2038 122.948 13.2265 122.948 13.2265V13.2238C122.948 13.2278 122.948 13.2352 122.948 13.2378C122.948 15.1463 123.521 15.6501 124.227 15.6501C124.929 15.6501 125.498 15.1883 125.498 13.2378C125.498 12.4682 125.304 11.7825 125.009 11.342C125.007 11.3333 124.997 11.324 124.992 11.316ZM139.943 24.9581C139.564 24.9581 139.508 24.5683 139.508 24.5389V11.0295H136.978V22.1846C136.944 22.2439 135.298 25.3786 132.998 25.3786C131.813 25.3786 131.437 24.7535 131.437 24.0385V11.0375H126.681V11.8711H128.905V22.7157C128.905 22.7157 128.802 26.2155 132.665 26.2155C135.253 26.2155 136.705 23.8766 136.978 23.4614V23.5334L136.98 23.5347C136.946 24.8801 137.41 25.7797 138.099 25.7904H141.641V24.9574H139.943V24.9581Z" fill="#2D2D2D"/>
<path d="M46.7688 3.89456V1.49626C46.7688 1.38564 46.7775 1.02913 46.7929 0.836548C46.7614 0.952498 46.6996 1.11443 46.6533 1.20039L45.1631 3.89456H44.7236V0.438721H45.149V2.88233C45.149 2.97829 45.1329 3.23018 45.1074 3.43142C45.1504 3.28949 45.2517 3.06891 45.3141 2.95296L46.6842 0.439387H47.1915V3.89456H46.7688Z" fill="#2D2D2D"/>
<path d="M50.5553 3.89456V2.22261H49.0624V3.89456H48.6396V0.438721H49.0624V1.88409H50.5553V0.438721H50.9766V3.89456H50.5553Z" fill="#2D2D2D"/>
<path d="M54.2999 0.788569H53.3358V3.89456H52.9124V0.788569H51.9609V0.438721H54.3261L54.2999 0.788569Z" fill="#2D2D2D"/>
<path d="M55.2715 3.89456V0.438721H57.2119L57.1536 0.791901H55.6935V1.91408H56.9167V2.26793H55.6935V3.54138H57.2609V3.89456H55.2715Z" fill="#2D2D2D"/>
<path d="M59.4198 0.438721C59.7459 0.438721 59.9653 0.45538 60.1954 0.601317C60.6007 0.851875 60.6504 1.22105 60.6504 1.42629C60.6504 1.68218 60.6007 2.01004 60.331 2.24594C60.0344 2.50849 59.6889 2.51982 59.4715 2.51982H58.8501V3.89456H58.4268V0.438721H59.4198ZM59.4446 2.18063C59.7868 2.18063 59.9109 2.09134 59.9982 1.99605C60.1062 1.88076 60.178 1.74415 60.178 1.49226C60.178 1.23438 60.1028 1.07045 59.9733 0.959162C59.8022 0.813225 59.5641 0.788569 59.2997 0.788569H58.8501V2.18063H59.4446Z" fill="#2D2D2D"/>
<path d="M63.6513 3.89456V2.22261H62.1604V3.89456H61.7363V0.438721H62.1604V1.88409H63.6513V0.438721H64.076V3.89456H63.6513Z" fill="#2D2D2D"/>
<path d="M65.5234 3.89456V0.438721H67.4625L67.4048 0.791901H65.9475V1.91408H67.1673V2.26793H65.9475V3.54138H67.5149V3.89456H65.5234Z" fill="#2D2D2D"/>
<path d="M70.4262 0.788569H69.4627V3.89456H69.04V0.788569H68.0879V0.438721H70.4537L70.4262 0.788569Z" fill="#2D2D2D"/>
<path d="M75.2325 3.57069H75.5961V4.80949H75.1801V3.89455H73.0807V4.81015H72.666V3.57069H72.8888C73.1491 3.04825 73.2712 2.60911 73.3128 2.45251C73.4551 1.9254 73.5 1.42096 73.5208 0.962489L73.547 0.438049H75.2331V3.57069H75.2325ZM73.8738 1.23037C73.861 1.40163 73.8107 2.07601 73.657 2.62044C73.5564 2.95696 73.388 3.35479 73.2887 3.57136H74.8104V0.761909H73.904L73.8738 1.23037Z" fill="#2D2D2D"/>
<path d="M77.4773 1.59355C77.4142 2.66575 77.3518 3.39543 77.0626 3.69264C76.909 3.85257 76.7224 3.88789 76.5467 3.90788L76.3695 3.93054L76.291 3.64199L76.3957 3.61067C76.4487 3.59668 76.5493 3.55537 76.6003 3.52938C76.917 3.37478 77.0358 2.91231 77.1197 1.26436L77.1599 0.438049H78.8581V3.89455H78.4348V0.761909H77.5229L77.4773 1.59355Z" fill="#2D2D2D"/>
<path d="M82.0866 3.89456V2.3339H81.5317C81.3513 2.3339 81.2432 2.39521 81.1808 2.45318C81.0721 2.55514 81.0299 2.73173 81.0104 2.82169L80.9185 3.27416C80.8896 3.4101 80.8581 3.59069 80.7615 3.71397C80.689 3.79926 80.5702 3.87457 80.3368 3.89922L80.0489 3.93121L79.9697 3.64267L80.0731 3.61135C80.1207 3.59735 80.2334 3.55604 80.279 3.53005C80.3576 3.49073 80.4005 3.44608 80.4468 3.28482L80.6004 2.72107C80.6427 2.5658 80.7004 2.43919 80.7829 2.35322C80.8433 2.28792 80.9473 2.20729 81.1043 2.17264V2.16197C80.9259 2.14132 80.7662 2.07135 80.6568 1.98538C80.4723 1.83945 80.3656 1.61288 80.3656 1.37765C80.3656 1.12442 80.4756 0.827219 80.7138 0.650629C80.9473 0.480703 81.2104 0.438721 81.6116 0.438721H82.5107V3.89456H82.0866ZM81.6042 0.761914C81.47 0.761914 81.2775 0.777907 81.1084 0.873199C80.9218 0.97782 80.8118 1.15041 80.8118 1.4123C80.8118 1.67419 80.9634 1.81479 81.058 1.88143C81.2473 2.01137 81.47 2.01137 81.6364 2.01137H82.0799V0.761914H81.6042Z" fill="#2D2D2D"/>
<path d="M89.5502 0.685906L89.3784 0.727887C89.3274 0.741881 89.2509 0.76787 89.212 0.797191C89.1859 0.817848 89.1255 0.867827 89.0852 1.02376L88.9443 1.51688C88.9101 1.64282 88.8765 1.74345 88.7907 1.8594C88.7175 1.95469 88.639 2.01666 88.5471 2.05598V2.06531C88.6102 2.09196 88.686 2.13061 88.7584 2.21724C88.847 2.32386 88.8973 2.45314 88.9362 2.58575L89.1355 3.27945C89.1617 3.37141 89.1711 3.4647 89.2999 3.53001C89.3476 3.55599 89.4616 3.59664 89.5093 3.6113L89.6139 3.64262L89.5354 3.93117L89.2469 3.89918C88.9966 3.87386 88.8859 3.79456 88.8208 3.71393C88.7262 3.59731 88.6994 3.44271 88.6658 3.27412L88.5511 2.71569C88.5384 2.65972 88.4948 2.45314 88.3814 2.34852C88.3196 2.28854 88.2123 2.22657 88.0318 2.22657H87.6889V3.89452H87.2642V2.22657H86.9207C86.7408 2.22657 86.6321 2.28788 86.5704 2.34852C86.455 2.45314 86.4087 2.65905 86.4006 2.71569L86.2859 3.27412C86.247 3.44204 86.2208 3.59731 86.1316 3.71393C86.0632 3.79456 85.9558 3.87452 85.7049 3.89918L85.4163 3.93117L85.3398 3.64262L85.4445 3.6113C85.4888 3.59731 85.6015 3.55599 85.6505 3.53001C85.7773 3.4647 85.7894 3.37074 85.8135 3.27945L86.0175 2.58575C86.0524 2.45314 86.1027 2.3232 86.1953 2.21724C86.2644 2.13061 86.3416 2.09196 86.4053 2.06531V2.05598C86.3128 2.01666 86.2342 1.95469 86.1638 1.8594C86.0746 1.74411 86.0444 1.64349 86.0075 1.51688L85.8652 1.02376C85.8256 0.867827 85.7646 0.817848 85.7384 0.797191C85.7022 0.76787 85.6257 0.741881 85.572 0.727887L85.4036 0.685906L85.4854 0.400696L85.7142 0.424685C85.8122 0.434015 85.9706 0.450008 86.0954 0.565291C86.1886 0.655252 86.241 0.822513 86.2611 0.927801L86.3637 1.42625C86.3792 1.49622 86.4201 1.67814 86.5308 1.77877C86.5657 1.81408 86.6704 1.88938 86.8697 1.88938H87.2655V0.438679H87.6903V1.88938H88.0821C88.2854 1.88938 88.3867 1.81408 88.4243 1.77877C88.5323 1.67814 88.5753 1.49622 88.588 1.42625L88.6934 0.927801C88.7135 0.821847 88.7645 0.655252 88.8578 0.565291C88.9819 0.450008 89.1422 0.434015 89.2395 0.424685L89.4677 0.400696L89.5502 0.685906Z" fill="#2D2D2D"/>
<path d="M90.7334 3.89456V0.438721H92.6738L92.6175 0.791901H91.1615V1.91408H92.3793V2.26793H91.1615V3.54138H92.7262V3.89456H90.7334Z" fill="#2D2D2D"/>
<path d="M95.8016 3.89456V2.22261H94.3127V3.89456H93.8887V0.438721H94.3127V1.88409H95.8016V0.438721H96.227V3.89456H95.8016Z" fill="#2D2D2D"/>
<path d="M101.442 3.58269V4.81016H101.029V3.89456H97.6758V0.438721H98.0911V3.58203H99.172V0.438721H99.5833V3.58203H100.664V0.438721H101.078V3.58203H101.442V3.58269Z" fill="#2D2D2D"/>
<path d="M104.675 3.89456V1.49626C104.675 1.38564 104.684 1.02913 104.701 0.836548C104.671 0.952498 104.606 1.11443 104.56 1.20039L103.069 3.89389H102.634V0.438721H103.057V2.88233C103.057 2.97829 103.04 3.23018 103.015 3.43142C103.061 3.28949 103.158 3.06891 103.221 2.95296L104.59 0.439387H105.097V3.89456H104.675Z" fill="#2D2D2D"/>
<path d="M108.459 3.89456V2.22261H106.97V3.89456H106.549V0.438721H106.97V1.88409H108.459V0.438721H108.885V3.89456H108.459Z" fill="#2D2D2D"/>
</g>
<defs>
<clipPath id="clip0_101_1186">
<rect width="140.776" height="31.1898" fill="white" transform="translate(0.866211 0.0562134)"/>
</clipPath>
</defs>
</svg>
