<svg width="115" height="149" viewBox="0 0 115 149" fill="none" xmlns="http://www.w3.org/2000/svg">
<path fill-rule="evenodd" clip-rule="evenodd" d="M106.206 16.1484C111.07 12.3802 114.773 9.51217 114.773 6.27379C114.773 4.00833 112.256 0.735994 109.488 0.48428C104.455 0.232565 98.6675 3.50489 95.1445 7.02894C92.2041 9.97021 89.3234 12.5535 86.6475 14.953C83.8272 17.4821 81.2345 19.807 79.0394 22.132C76.5685 21.7517 74.8154 20.7971 72.8042 19.7019C72.1527 19.3471 71.4741 18.9775 70.7352 18.608C69.066 17.7731 67.3354 16.8399 65.5786 15.8925C59.3896 12.5551 52.8761 9.04269 47.584 9.04269C39.0281 9.04269 32.4854 16.5942 26.6976 24.6492C22.6713 30.4387 18.1418 37.2351 19.1483 41.0108C19.6516 43.0246 21.4131 43.528 23.4263 43.7797C24.6395 43.9314 27.0407 40.4265 29.4183 36.956C30.9861 34.6676 32.5437 32.3941 33.7436 31.1938C35.0569 29.7792 36.1167 28.547 37.0369 27.4771C40.7017 23.2164 42.1543 21.5275 48.5906 21.1251C50.1004 20.9993 52.8685 22.3837 55.9511 23.9255C59.0338 25.4673 62.4309 27.1664 65.199 27.6698C66.4272 27.9769 68.4985 29.1274 70.4413 30.2064C71.6828 30.896 72.8719 31.5564 73.7549 31.949C71.6114 35.0937 67.4393 41.5663 62.667 48.9701C59.0353 54.6044 55.056 60.7779 51.3587 66.4343C47.1375 72.817 43.5673 78.0123 40.1402 82.9465C38.6194 83.2793 37.0962 83.6249 35.5847 83.9776C25.1339 86.4167 14.686 89.3389 8.23336 91.2927C5.65908 92.0722 4.20411 94.791 4.98359 97.3652C5.76307 99.9395 8.48182 101.394 11.0561 100.615C16.1139 99.0835 23.7298 96.9306 31.8303 94.9065C29.17 98.766 26.3574 102.903 23.1746 107.716C20.3392 112.009 17.1071 116.675 13.9757 121.196C6.82436 131.52 0.19848 141.086 0.0234701 143.712C-0.228173 148.243 1.53333 148.746 5.81126 148.998C10.1537 149.171 16.2945 139.631 22.8269 129.482C25.7583 124.928 28.7686 120.251 31.7305 116.274C39.0153 106.352 44.0088 99.0075 49.3573 91.0066C55.1291 89.9253 60.1692 89.2503 63.6554 89.2503C66.3451 89.2503 68.5255 87.0699 68.5255 84.3802C68.5255 81.6905 66.3451 79.51 63.6554 79.51C61.6332 79.51 59.2824 79.6849 56.7121 79.9921C57.8865 78.2403 59.1156 76.4135 60.4178 74.4893C63.4743 70.0124 65.9152 66.246 68.2951 62.5737C71.4016 57.7803 74.4041 53.1473 78.5361 47.3038C83.0657 41.0108 86.5887 36.2282 90.615 31.1938C92.6759 29.2353 94.4415 27.319 96.1364 25.4795C98.5803 22.827 100.877 20.3341 103.7 18.1045C104.56 17.4238 105.399 16.7737 106.206 16.1484Z" fill="#1D377B"/>
</svg>
