<svg width="16" height="27" viewBox="0 0 16 27" fill="none" xmlns="http://www.w3.org/2000/svg">
<path fill-rule="evenodd" clip-rule="evenodd" d="M8 14C4.15 14 1 10.85 1 7C1 3.15 4.15 0 8 0C11.85 0 15 3.15 15 7C15 10.85 11.85 14 8 14ZM8 3C5.9875 3 4 4.9875 4 7C4 9.0125 5.9875 11 8 11C10.0125 11 12 9.0125 12 7C12 4.9875 10.0125 3 8 3Z" fill="#FF830A"/>
<path fill-rule="evenodd" clip-rule="evenodd" d="M15.8435 15.1831C15.2765 14.4326 13.6373 13.6981 12.9084 14.1984C12.9084 14.1984 10.9324 16.1679 8.01655 16.1679C5.10072 16.1679 3.12471 14.1984 3.12471 14.1984C2.39576 13.6147 0.756581 14.4326 0.189616 15.1831C-0.37735 15.9337 0.439026 16.5689 1.16798 17.1526C1.24898 17.236 3.22499 18.7051 6.05981 19.1221L1.16798 24.0458C0.520021 24.7129 0.520021 25.4315 1.16798 26.0153C1.49196 26.3488 1.74137 27 2.14635 27C2.55132 27 3.7791 26.3488 4.10308 26.0153L8.01655 22.0763L11.93 26.0153C12.254 26.3488 13.4818 27 13.8867 27C14.2917 27 14.5411 26.3488 14.8651 26.0153C15.5131 25.3481 15.5131 24.7129 14.8651 24.0458L9.97328 19.1221C12.8081 18.6217 14.7841 17.1526 14.8651 17.1526C15.5941 16.5689 16.3294 15.8503 15.8435 15.1831Z" fill="#FF830A"/>
</svg>
