<svg width="40" height="40" viewBox="0 0 40 40" fill="none" xmlns="http://www.w3.org/2000/svg">
<path d="M29.7167 21.233C29.25 20.283 27.9333 19.483 26.1833 20.833C23.8 22.733 20 22.733 20 22.733C20 22.733 16.2 22.733 13.8167 20.833C12.0667 19.483 10.75 20.283 10.2833 21.233C9.44999 22.8997 10.3833 23.7163 12.5 25.0663C14.3167 26.233 16.8 26.6663 18.4 26.833L17.0667 28.1663C15.1667 30.0497 13.3333 31.8663 12.0833 33.133C11.3333 33.8997 11.3333 35.1163 12.0833 35.833L12.3167 36.0997C13.0667 36.8497 14.3 36.8497 15.05 36.0997L20 31.133C21.9167 33.0163 23.7333 34.833 25 36.0997C25.75 36.8497 26.9667 36.8497 27.7333 36.0997L27.95 35.833C28.7167 35.1163 28.7167 33.8997 27.95 33.133L22.9833 28.1663L21.6667 26.8163C23.25 26.6663 25.7 26.2163 27.5 25.0663C29.6167 23.7163 30.55 22.8997 29.7167 21.233ZM20 7.61634C22.3 7.61634 24.1667 9.48301 24.1667 11.7663C24.1667 14.0663 22.3 15.9163 20 15.9163C17.7 15.9163 15.8333 14.0663 15.8333 11.7663C15.8333 9.48301 17.7 7.61634 20 7.61634ZM20 20.1997C24.6667 20.1997 28.4333 16.433 28.4333 11.7663C28.4333 9.52968 27.5448 7.38463 25.9633 5.80307C24.3817 4.22152 22.2367 3.33301 20 3.33301C17.7633 3.33301 15.6183 4.22152 14.0367 5.80307C12.4552 7.38463 11.5667 9.52968 11.5667 11.7663C11.5667 16.433 15.3333 20.1997 20 20.1997Z" fill="white"/>
</svg>
