<svg width="29" height="26" viewBox="0 0 29 26" fill="none" xmlns="http://www.w3.org/2000/svg">
<path d="M27.9379 0.0971885L0.744909 10.9877C-0.227505 11.3807 -0.268885 13.7025 0.744909 13.9579L5.78065 14.9479C6.13237 15.0265 6.66366 15.604 6.7878 15.938L9.80924 23.8584C10.0575 24.6246 10.2578 25.4771 10.8164 24.8484L14.845 20.8882C15.2381 20.456 15.397 20.5346 15.8521 20.8882L21.895 25.8385C22.5364 26.3296 23.7231 25.6146 23.9093 24.8484L28.9451 1.08724C29.152 0.262099 28.7655 -0.21715 27.9379 0.0971885ZM22.9022 6.03748L10.8164 15.938C10.5474 16.1541 10.8371 16.594 10.8164 16.928L9.80924 21.8783C9.78855 22.0747 9.87131 22.0551 9.80924 21.8783L7.79495 14.9479C7.71219 14.6925 7.54667 14.0954 7.79495 13.9579L21.895 6.03748C22.0605 5.93925 23.047 5.91961 22.9022 6.03748Z" fill="#FF830A"/>
</svg>
