<svg width="30" height="17" viewBox="0 0 30 17" fill="none" xmlns="http://www.w3.org/2000/svg">
<path fill-rule="evenodd" clip-rule="evenodd" d="M14.9062 16.8876H15.8948C15.8948 16.8876 16.6223 17.1405 16.8834 16.8876C17.1445 16.6346 17.872 15.903 17.872 15.903C17.872 15.903 17.8162 13.2865 18.8606 12.9493C19.9051 12.6121 21.4224 14.9756 22.815 15.903C23.8594 16.6618 24.7922 16.8876 24.7922 16.8876H28.7465C28.7465 16.8876 30.6925 16.5204 29.7351 14.9184C29.6481 14.8341 29.1194 14.0725 26.7694 11.9647C24.3323 9.77264 24.8857 9.85131 27.7579 6.05731C29.4987 3.78091 29.9092 1.80895 29.7351 1.13446C29.5611 0.544279 27.7579 1.13446 27.7579 1.13446H23.8036C23.8036 1.13446 22.9891 1.05015 22.815 1.13446C22.5539 1.30308 22.815 1.13446 22.815 1.13446C22.815 1.13446 21.7082 3.55514 20.8378 5.07274C18.923 8.19225 18.1331 8.19507 17.872 8.02645C17.1757 7.60489 17.872 6.00016 17.872 5.07274C17.872 2.03754 18.3631 0.487131 16.8834 0.149887C16.4482 0.0655754 15.1362 0.149887 13.9177 0.149887C12.351 0.149887 11.6482 -0.187358 10.9519 0.149887C10.4297 0.40282 9.70217 1.13446 9.96329 1.13446C10.2244 1.13446 10.6037 1.69747 10.9519 2.11903C11.3871 2.70921 11.9405 4.08817 11.9405 4.08817C11.9405 4.08817 11.8223 7.60489 10.9519 8.02645C10.3426 8.36369 9.72686 7.93932 7.9861 5.07274C7.11572 3.63945 6.00892 1.13446 6.00892 1.13446C6.00892 1.13446 6.27003 1.30308 6.00892 1.13446C5.74781 0.965835 5.02033 1.13446 5.02033 1.13446H1.06596C1.06596 1.13446 0.33848 0.881523 0.077367 1.13446C-0.0967087 1.38739 0.077367 2.11903 0.077367 2.11903C0.077367 2.11903 3.34192 9.23961 6.99751 12.9493C10.1309 16.659 14.9062 16.8876 14.9062 16.8876Z" fill="#FF830A"/>
</svg>
