<svg width="40" height="40" viewBox="0 0 40 40" fill="none" xmlns="http://www.w3.org/2000/svg">
<path d="M35.965 11.4254C36.1983 10.6504 35.965 10.082 34.8617 10.082H31.2067C30.2767 10.082 29.8517 10.5737 29.6183 11.1137C29.6183 11.1137 27.76 15.6454 25.1267 18.5837C24.2767 19.4387 23.8883 19.7087 23.425 19.7087C23.1933 19.7087 22.8567 19.4387 22.8567 18.6637V11.4254C22.8567 10.4954 22.5883 10.082 21.8133 10.082H16.07C15.49 10.082 15.14 10.512 15.14 10.922C15.14 11.802 16.4567 12.0054 16.5917 14.4854V19.8654C16.5917 21.0437 16.38 21.2587 15.9133 21.2587C14.675 21.2587 11.6617 16.7104 9.87334 11.5037C9.52501 10.492 9.17334 10.0837 8.24001 10.0837H4.58668C3.54168 10.0837 3.33334 10.5754 3.33334 11.1154C3.33334 12.0854 4.57168 16.8854 9.10168 23.2337C12.1217 27.5687 16.3733 29.9187 20.2467 29.9187C22.5683 29.9187 22.855 29.397 22.855 28.497V25.2204C22.855 24.177 23.0767 23.967 23.8117 23.967C24.3517 23.967 25.2817 24.2404 27.45 26.3287C29.9267 28.8054 30.3367 29.917 31.7283 29.917H35.3817C36.425 29.917 36.9467 29.3954 36.6467 28.3654C36.3183 27.3404 35.135 25.8487 33.565 24.0837C32.7117 23.077 31.4367 21.9937 31.0483 21.452C30.5067 20.7537 30.6633 20.4454 31.0483 19.8254C31.05 19.827 35.5017 13.557 35.965 11.4254Z" fill="white"/>
</svg>
